<?xml version="1.0" encoding="utf-8"?>
<!-- Generator: Adobe Illustrator 19.0.0, SVG Export Plug-In . SVG Version: 6.00 Build 0)  -->
<svg version="1.1"
	 id="svg1128" xmlns:dc="http://purl.org/dc/elements/1.1/" xmlns:cc="http://creativecommons.org/ns#" xmlns:rdf="http://www.w3.org/1999/02/22-rdf-syntax-ns#" xmlns:svg="http://www.w3.org/2000/svg" xmlns:inkscape="http://www.inkscape.org/namespaces/inkscape" xmlns:sodipodi="http://sodipodi.sourceforge.net/DTD/sodipodi-0.dtd" sodipodi:docname="bus.svg" inkscape:version="0.92.3 (2405546, 2018-03-11)"
	 xmlns="http://www.w3.org/2000/svg" xmlns:xlink="http://www.w3.org/1999/xlink" x="0px" y="0px"
	 viewBox="428 -305.4 1451.3 1451.3" style="enable-background:new 428 -305.4 1451.3 1451.3;" xml:space="preserve">
<style type="text/css">
	.st0{fill:#E0E0E0;}
	.st1{fill:#FFB612;}
	.st2{fill:#262626;}
</style>
<sodipodi:namedview  inkscape:cy="1116.8154" inkscape:cx="396.85039" inkscape:zoom="0.36" borderopacity="1.0" bordercolor="#666666" pagecolor="#ffffff" showgrid="false" id="base" inkscape:window-maximized="1" inkscape:current-layer="layer1" inkscape:document-units="mm" inkscape:pageshadow="2" inkscape:pageopacity="0.0" inkscape:window-y="27" inkscape:window-height="1025" inkscape:window-width="1853" inkscape:window-x="67">
	</sodipodi:namedview>
<g id="layer1" transform="translate(0,215)" inkscape:label="Capa 1" inkscape:groupmode="layer">
	<g id="g3827" transform="matrix(3.8625017,0,0,-3.8625017,-1010.6764,4240.6983)">
		<g id="g258" transform="translate(302,1054)">
			<path id="path260" inkscape:connector-curvature="0" class="st0" d="M184.8-103.6c0-7.8-6.3-14.2-14.2-14.2s-14.2,6.3-14.2,14.2
				s6.3,14.2,14.2,14.2S184.8-95.8,184.8-103.6"/>
		</g>
		<g id="g262" transform="translate(364,1054)">
			<path id="path264" inkscape:connector-curvature="0" class="st0" d="M298.6-103.6c0-7.8-6.3-14.2-14.2-14.2
				c-7.8,0-14.2,6.3-14.2,14.2s6.3,14.2,14.2,14.2C292.2-89.4,298.6-95.8,298.6-103.6"/>
		</g>
		<g id="g266" transform="translate(353.5,1119)">
			<path id="path268" inkscape:connector-curvature="0" class="st1" d="M279.3,15.6H134.7c-15.1,0-28.9,6.4-35.9,16.6
				c-1.8,2.6-1.1,6.1,1.5,7.9c2.6,1.8,6.1,1.1,7.9-1.5c4.9-7.1,15.3-11.7,26.5-11.7h144.6c11.2,0,21.6,4.6,26.5,11.7
				c1.8,2.6,5.3,3.3,7.9,1.5c2.6-1.8,3.2-5.3,1.5-7.9C308.1,22,294.4,15.6,279.3,15.6"/>
		</g>
		<path id="path270" inkscape:connector-curvature="0" class="st1" d="M637,1004.2h-22.7v11.3H637V1004.2z"/>
		<g id="g272" transform="translate(314,1085)">
			<path id="path274" inkscape:connector-curvature="0" class="st2" d="M206.8-46.7v51h68l0-51H206.8z M274.9,15.6h-68
				c-6.3,0-11.3-5.1-11.3-11.3v-51c0-6.3,5.1-11.3,11.3-11.3h68c6.3,0,11.3,5.1,11.3,11.3v51C286.2,10.5,281.1,15.6,274.9,15.6"/>
		</g>
		<g id="g276" transform="translate(301,1085)">
			<path id="path278" inkscape:connector-curvature="0" class="st2" d="M183-46.7h-56.7V-17c0,11.7,9.5,21.3,21.3,21.3H183V-46.7z
				 M183,15.6h-35.4c-18,0-32.6-14.6-32.6-32.6v-29.8c0-6.3,5.1-11.3,11.3-11.3H183c6.3,0,11.3,5.1,11.3,11.3v51
				C194.3,10.5,189.2,15.6,183,15.6"/>
		</g>
		<g id="g280" transform="translate(374.9941,1085)">
			<path id="path282" inkscape:connector-curvature="0" class="st2" d="M318.7-46.7h-45.3v51h2.8c23.4,0,42.5-19.1,42.5-42.5
				L318.7-46.7z M318.7-52.4v5.7l0,0V-52.4z M250.7,4.3h11.3v-51h-11.3V4.3z M276.2,15.6h-25.5c-6.3,0-11.3-5.1-11.3-11.3v-51
				c0-6.3,5.1-11.3,11.3-11.3h68c6.3,0,11.3,5.1,11.3,11.3v8.5C330.1-8.5,305.9,15.6,276.2,15.6"/>
		</g>
		<path id="path284" inkscape:connector-curvature="0" class="st2" d="M520.8,967.4h79.4v11.3h-79.4V967.4z"/>
		<g id="g286" transform="translate(370.8193,1056)">
			<path id="path288" inkscape:connector-curvature="0" class="st2" d="M311.1-99.9c-2.7,16.1-16.7,28.3-33.5,28.3
				s-30.8-12.3-33.5-28.3H135.3c-2.7,16.1-16.7,28.3-33.5,28.3S71-83.9,68.3-99.9h-26v11.3c0,6.3-5.1,11.3-11.3,11.3v85
				c0,28.1,22.9,51,51,51h36.9h28.3h76.5h28.3h28.3c37.5,0,68-30.5,68-68v-28.3v-34v-5.7c-6.3,0-11.3-5.1-11.3-11.3v-11.3H311.1z
				 M277.6-128.3c-12.5,0-22.7,10.2-22.7,22.7s10.2,22.7,22.7,22.7s22.7-10.2,22.7-22.7S290.1-128.3,277.6-128.3 M101.8-128.3
				c-12.5,0-22.7,10.2-22.7,22.7s10.2,22.7,22.7,22.7s22.7-10.2,22.7-22.7S114.3-128.3,101.8-128.3 M130.2,78.6h5.7v-8.5h-5.7V78.6z
				 M235,78.6h5.7v-8.5H235V78.6z M359.8-77.3v6.7c6.6,2.3,11.3,8.6,11.3,16s-4.7,13.7-11.3,16v29.3c0,43.8-35.6,79.4-79.4,79.4
				h-28.3V90h-28.3V70.1h-76.5V90h-28.3V70.1H82c-34.4,0-62.4-28-62.4-62.4v-85c-6.3,0-11.3-5.1-11.3-11.3v-11.3
				c0-6.3,5.1-11.3,11.3-11.3H31h37.4c2.7-16.1,16.7-28.3,33.5-28.3s30.8,12.3,33.5,28.3h108.7c2.7-16.1,16.7-28.3,33.5-28.3
				s30.8,12.3,33.5,28.3h37.4h11.3c6.3,0,11.3,5.1,11.3,11.3v11.3C371.1-82.3,366-77.3,359.8-77.3"/>
		</g>
	</g>
</g>
</svg>
