<?xml version="1.0" encoding="utf-8"?>
<svg version="1.1" id="Calque_1" xmlns="http://www.w3.org/2000/svg" xmlns:xlink="http://www.w3.org/1999/xlink" x="0px" y="0px"
	 viewBox="0 0 174 102" style="enable-background:new 0 0 174 102;" xml:space="preserve">
<style type="text/css">
	.st0{fill:#FFFFFF;stroke:#010202;stroke-miterlimit:10;}
	.st1{fill:none;stroke:#010202;stroke-miterlimit:10;}
	.st2{fill:none;stroke:#010202;stroke-width:0.5;stroke-miterlimit:10;}
	.st3{fill:#FFFFFF;}
	.st4{fill:#FFFFFF;stroke:#010202;stroke-width:0.5;stroke-linejoin:round;stroke-miterlimit:10;}
	.st5{fill:#575756;stroke:#010202;stroke-width:0.5;stroke-miterlimit:10;}
	.st6{fill:#FFFFFF;stroke:#010202;stroke-linejoin:round;stroke-miterlimit:10;}
</style>
<g id="map">
	<polygon id="XMLID_16_" class="st0" points="86.1,86.4 60.4,70.8 34.8,86.4 9.1,70.8 9.1,10.4 34.8,26 60.4,10.4 86.1,26 	"/>
	<line id="XMLID_15_" class="st1" x1="34.8" y1="86.4" x2="34.8" y2="26"/>
	<line id="XMLID_14_" class="st1" x1="60.4" y1="70.8" x2="60.4" y2="10.4"/>
	<path id="XMLID_13_" class="st2" d="M86.1,45.4c-5.3-5-5.4,15.3-6.9,19.7s-11-5.8-14.3-8.9c-3.3-3,5.2-10.8,6.3-16.5
		C72.3,34,64,22,60.4,23.2S54,38.5,53.5,45S51,68.4,47.6,70.8S35.3,63,34.8,61.2c-4.4-14.8-11.7,11-15.9,5
		C13.6,58.8,14.6,26,14.6,26s-1.3-9.8-5.5-6.8"/>
</g>
<g id="van">
	<circle id="XMLID_35_" cx="87.2" cy="85.3" r="9.2"/>
	<circle id="XMLID_26_" class="st3" cx="87.2" cy="85.3" r="4.5"/>
	<path id="XMLID_36_" class="st3" d="M158.2,58.2c-2.6-7.1-7.4-13.7-7.4-13.7H70c0,0-3.4,10.6-3.4,22.1s1.9,19.8,1.9,19.8H75
		c0-2,1.1-5,1.9-6.7c4.3,0,16.4,0,20.7,0c0.8,1.7,1.8,4.7,1.8,6.7h24.9c0-6.7,5.5-12.2,12.2-12.2c6.7,0,12.2,5.5,12.2,12.2h8.5
		c0,0,2.6-7.3,2.6-15.3C159.8,67.8,159.9,62.9,158.2,58.2z"/>
	<circle id="XMLID_28_" cx="136.7" cy="85.3" r="9.2"/>
	<circle id="XMLID_27_" class="st3" cx="136.7" cy="85.3" r="4.5"/>
	<path id="XMLID_19_" class="st0" d="M155.1,44.4H65.8c0,0,1.2-4.8,5.2-4.8c4,0,79.8,0,79.8,0S155.1,40.6,155.1,44.4z"/>
	<path id="XMLID_33_" class="st4" d="M157.7,56.9h-26.4l-4.1-12.5l23.7,0C150.8,44.4,154.4,49.2,157.7,56.9z"/>
	<path id="XMLID_47_" class="st5" d="M157.2,86.4c0,0-6.4,0-8.5,0c-0.2-1.6,0-3.6-2.2-6.9c-2.1-3.3-6.4-5.3-10-5.3
		c-3.4,0-5.9,1.2-7.8,2.8c-4.9,4.1-4.4,9.4-4.4,9.4s-23,0-24.9,0c-0.2-3.8-1.8-6.7-1.8-6.7s-18,0-20.7,0c-1.8,3.4-1.9,6.7-1.9,6.7
		s-3.3,0-6.7-0.2c-2.4-11.3-1.7-23.8-1.7-23.8h67.2c0,0,18.8,0.6,25.9,11.8C159.8,74.2,159,81.4,157.2,86.4z"/>
	<path id="XMLID_25_" class="st4" d="M74,56.9l2.3-12.5l-6.3,0c0,0-2.2,7.1-2.7,12.5H74z"/>
	<path id="XMLID_32_" class="st1" d="M158.2,58.2c-2.6-7.1-7.4-13.7-7.4-13.7H70c0,0-3.4,10.6-3.4,22.1s1.9,19.8,1.9,19.8H75
		c0-2,1.1-5,1.9-6.7c4.3,0,16.4,0,20.7,0c0.8,1.7,1.8,4.7,1.8,6.7h24.9c0-6.7,5.5-12.2,12.2-12.2c6.7,0,12.2,5.5,12.2,12.2h8.5
		c0,0,2.6-7.3,2.6-15.3C159.8,67.8,159.9,62.9,158.2,58.2z"/>
	<ellipse id="XMLID_30_" class="st6" cx="160.2" cy="72.7" rx="1.8" ry="3.3"/>
	<path id="XMLID_38_" class="st0" d="M158.4,81.6h-10.6c0.6,1.5,0.9,3.1,0.9,4.7c0,0.2,0,0.4,0,0.5h9.7c1.5,0,2.6-1.2,2.6-2.6
		S159.8,81.6,158.4,81.6z"/>
	<path id="XMLID_31_" class="st0" d="M75.1,86.4c0-1.7,0.3-3.3,0.9-4.7h-8.2c-1.5,0-2.6,1.2-2.6,2.6s1.2,2.6,2.6,2.6h7.3
		C75.1,86.7,75.1,86.5,75.1,86.4z"/>
</g>
</svg>
